<svg width="20" height="18" viewBox="0 0 20 18" fill="none" xmlns="http://www.w3.org/2000/svg">
<path d="M9.66433 11.8425C9.96236 11.6697 10.3301 11.6697 10.6281 11.8425L17.2171 15.6623C18.0668 16.1549 17.7174 17.4545 16.7352 17.4545H3.55719C2.57505 17.4545 2.22561 16.1549 3.0753 15.6623L9.66433 11.8425Z" fill="#888888"/>
<path d="M10.1549 11.5635L11.1711 12.1526H9.13867L10.1549 11.5635Z" fill="#888888"/>
<path d="M9.36011 9.9696L8.3418 10.5551L9.35802 8.79492L9.36011 9.9696Z" fill="#888888"/>
<path d="M9.3511 9.41012C9.35172 9.75462 9.16786 10.0731 8.86921 10.2448L2.2667 14.0413C1.41526 14.5309 0.464543 13.5785 0.955635 12.7279L7.54464 1.31505C8.03571 0.464456 9.33587 0.811622 9.33762 1.79378L9.3511 9.41012Z" fill="#888888"/>
<path d="M10.9854 9.9696L10.9874 8.79492L12.0037 10.5551L10.9854 9.9696Z" fill="#888888"/>
<path d="M11.4878 10.2448C11.1891 10.0731 11.0053 9.75463 11.0059 9.41013L11.0194 1.79379C11.0211 0.811605 12.3212 0.464463 12.8123 1.31506L19.4013 12.7279C19.8924 13.5784 18.9417 14.5309 18.0903 14.0413L11.4878 10.2448Z" fill="#888888"/>
</svg>
