<svg width="1300" height="1301" viewBox="0 0 1300 1301" fill="none" xmlns="http://www.w3.org/2000/svg">
<circle cx="650" cy="650.004" r="650" fill="white"/>
<path d="M628.439 704.63C640.846 697.437 656.154 697.437 668.561 704.63L942.86 863.644C978.232 884.15 963.685 938.25 922.798 938.25L374.201 938.25C333.315 938.25 318.768 884.15 354.14 863.644L628.439 704.63Z" fill="black"/>
<path d="M648.85 693L691.155 717.525H606.545L648.85 693Z" fill="black"/>
<path d="M615.745 626.655L573.353 651.03L615.658 577.755L615.745 626.655Z" fill="black"/>
<path d="M615.398 603.365C615.424 617.706 607.77 630.963 595.337 638.112L320.477 796.154C285.032 816.535 245.454 776.887 265.898 741.478L540.196 266.379C560.639 230.97 614.764 245.422 614.837 286.308L615.398 603.365Z" fill="black"/>
<path d="M683.425 626.655L683.511 577.755L725.817 651.03L683.425 626.655Z" fill="black"/>
<path d="M704.352 638.112C691.92 630.964 684.266 617.706 684.291 603.365L684.853 286.308C684.925 245.422 739.05 230.97 759.494 266.379L1033.79 741.478C1054.24 776.887 1014.66 816.535 979.212 796.154L704.352 638.112Z" fill="black"/>
</svg>
